:SAMPLES-PER-SECOND 30
:FULLY-SPECIFIED
:DEGREES
689
root  -58.9755 40.2333 -1.19999 -0.877239 -33.1454 2.9581
RightUpLeg  -9.28317 -16.7958 -13.8837
RightLeg  3.81615 -35.3135 2.3993
RightFoot  10.327 -0.0467596 0.616382
RightToes  5.82063e-011 0 -3.6325e-017
Spine  38.0915 -2.60069 10.7546
Spine1  4.2085 0.887801 0.381894
HEad  -11.7538 -9.33949 -30.2208
LeftShoulder1  1.67383 -1.40612 -27.9922
LeftArm  -10.3578 -3.80837 -40.0815
LeftForeArm  17.9016 -10.2264 -5.22108
LeftHand  -0.00442294 -3.88919 0.142154
RightShoulder  0.22617 -2.6982 22.8509
RightArm  17.1148 2.52524 46.3816
RightForeArm  -7.50345 12.9944 7.39468
RightHand  -1.65731 9.72497 -13.042
LeftUpLeg  -18.4116 43.6523 -0.526753
LeftLeg  22.5502 14.0362 6.71231
LeftFoot  -7.45008 -0.0888359 3.94012
LeftToes  2.58842e-009 -1.78069e-010 3.24654e-012
690
root  -58.5992 40.2432 -0.731756 -0.733327 -28.5309 2.90463
RightUpLeg  -7.09131 -18.0244 -16.1412
RightLeg  3.42554 -38.1902 2.79347
RightFoot  10.8877 -0.187973 1.33967
RightToes  5.82063e-011 0 -3.6325e-017
Spine  35.1262 -2.40277 10.6253
Spine1  4.30138 0.951339 -0.368535
HEad  -9.1515 -8.61478 -31.7614
LeftShoulder1  1.52204 -1.07182 -27.1394
LeftArm  -9.40615 -1.22758 -40.7774
LeftForeArm  16.2761 -13.5974 -5.03142
LeftHand  -0.0341339 0.381045 0.850298
RightShoulder  0.0814847 -3.20928 23.92
RightArm  18.8087 -0.850002 44.826
RightForeArm  -8.15903 14.4219 7.10002
RightHand  -1.59919 9.952 -12.422
LeftUpLeg  -16.1053 45.1938 -0.926418
LeftLeg  18.9289 18.7015 6.78423
LeftFoot  -6.98897 -0.109674 4.12374
LeftToes  2.58842e-009 -1.78069e-010 3.24654e-012
691
root  -58.0608 40.1151 -0.153764 -0.492509 -23.0141 2.78693
RightUpLeg  -5.18956 -20.4134 -19.1426
RightLeg  5.60092 -40.5549 2.20868
RightFoot  10.5785 -0.446226 2.66713
RightToes  5.82063e-011 0 -3.6325e-017
Spine  32.1307 -2.7063 10.6616
Spine1  3.93913 0.396748 -0.704524
HEad  -7.86079 -6.69558 -31.9163
LeftShoulder1  1.36466 -0.655403 -26.6633
LeftArm  -8.52343 1.48693 -42.0279
LeftForeArm  13.1544 -16.9543 -4.56461
LeftHand  -0.092258 2.96011 3.73755
RightShoulder  0.092249 -3.16971 23.6763
RightArm  19.5345 -4.63231 44.0968
RightForeArm  -8.45232 15.8877 6.58849
RightHand  -1.5482 9.02649 -12.775
LeftUpLeg  -12.985 37.8194 0.293257
LeftLeg  16.7153 24.5807 5.19292
LeftFoot  -5.17885 -0.093625 2.18881
LeftToes  2.58842e-009 -1.78069e-010 3.24654e-012
692
root  -57.5276 39.9287 0.409779 -0.994747 -18.4741 2.41299
RightUpLeg  -3.50433 -24.2516 -21.331
RightLeg  9.67226 -38.4017 -0.663714
RightFoot  8.94658 -0.764782 4.67803
RightToes  5.82063e-011 0 -3.6325e-017
Spine  30.4296 -2.26639 10.3148
Spine1  3.612 0.658062 -0.899301
HEad  -5.94303 -5.093 -32.6915
LeftShoulder1  1.17893 -0.0104858 -27.5243
LeftArm  -6.14787 1.29952 -42.2213
LeftForeArm  10.3278 -18.3633 -4.72456
LeftHand  -0.059174 4.69998 6.18743
RightShoulder  0.0254346 -3.39272 23.5618
RightArm  20.5981 -7.67073 42.7825
RightForeArm  -10.3465 17.3251 6.23918
RightHand  -1.6126 8.54293 -13.7251
LeftUpLeg  -12.5822 37.0328 0.00727572
LeftLeg  17.4499 21.4335 3.77903
LeftFoot  -3.42451 -0.22435 3.59188
LeftToes  2.58842e-009 -1.78069e-010 3.24654e-012
693
root  -57.0044 39.7257 0.861892 -1.91307 -12.5412 2.35989
RightUpLeg  -2.45218 -29.0464 -22.8399
RightLeg  14.1296 -28.1642 -4.84842
RightFoot  3.92019 -1.00468 7.79815
RightToes  5.82063e-011 0 -3.6325e-017
Spine  29.2276 -1.99262 9.14483
Spine1  3.43852 0.191263 0.295651
HEad  -4.35992 -3.34679 -35.0113
LeftShoulder1  0.93232 0.85812 -29.1022
LeftArm  -3.16032 -1.31423 -42.229
LeftForeArm  8.35639 -17.991 -5.23788
LeftHand  -0.0325162 5.10941 6.02139
RightShoulder  -0.0249639 -3.55929 23.4369
RightArm  19.4182 -9.82933 41.8558
RightForeArm  -10.4315 18.1196 5.86403
RightHand  -1.47987 7.89226 -13.2006
LeftUpLeg  -13.6219 38.7372 -2.62092
LeftLeg  19.2926 13.6024 4.61889
LeftFoot  -5.0716 -0.237936 4.90634
LeftToes  2.58842e-009 -1.78069e-010 3.24654e-012
694
root  -56.486 39.6097 1.31326 -2.94984 -7.15208 2.72552
RightUpLeg  -2.3545 -23.3058 -23.3371
RightLeg  16.7308 -17.842 -5.88426
RightFoot  -1.92883 -0.611593 6.78376
RightToes  5.82063e-011 0 -3.6325e-017
Spine  27.6949 -1.96498 9.00189
Spine1  4.25263 0.35402 -1.31971
HEad  -2.99868 -1.13816 -35.7862
LeftShoulder1  1.0148 0.560863 -28.3751
LeftArm  -2.44086 -3.31073 -44.3954
LeftForeArm  10.36 -16.652 -5.70298
LeftHand  -0.108557 3.28657 5.12971
RightShoulder  -0.134584 -3.91825 24.2829
RightArm  18.2626 -11.3262 41.4243
RightForeArm  -11.1206 18.2203 5.75628
RightHand  -1.25129 6.93445 -12.1034
LeftUpLeg  -12.3992 33.3193 -3.64134
LeftLeg  20.1932 14.118 4.83655
LeftFoot  -6.14067 -0.248242 6.26109
LeftToes  2.58842e-009 -1.78069e-010 3.24654e-012
695
root  -56.0118 39.5838 1.75759 -4.45522 -2.46995 2.74466
RightUpLeg  -3.02138 -10.8366 -22.468
RightLeg  21.1118 -9.2823 -4.14505
RightFoot  -5.18731 0.0330795 -0.795318
RightToes  5.82063e-011 0 -3.6325e-017
Spine  26.3348 -1.68704 8.00779
Spine1  6.16866 0.303709 -1.56639
HEad  -1.86226 2.46434 -36.5613
LeftShoulder1  0.959937 0.732897 -28.5332
LeftArm  -1.69777 -4.80219 -46.0922
LeftForeArm  11.8579 -16.1973 -5.94739
LeftHand  -0.106161 3.33308 5.1937
RightShoulder  -0.154673 -3.98259 24.3105
RightArm  18.8192 -10.8085 42.3451
RightForeArm  -13.1558 17.1965 6.20581
RightHand  -1.22751 5.82145 -12.9519
LeftUpLeg  -9.69622 27.3085 -3.55309
LeftLeg  20.3014 15.8449 4.81112
LeftFoot  -7.00074 -0.219689 6.89644
LeftToes  2.58842e-009 -1.78069e-010 3.24654e-012
696
root  -55.5968 39.4488 2.31211 -4.26904 3.29869 3.94684
RightUpLeg  -4.78313 -4.63025 -22.2642
RightLeg  26.1094 -0.943213 -0.733798
RightFoot  -8.15767 -0.0958515 1.55636
RightToes  5.82063e-011 0 -3.6325e-017
Spine  23.074 -1.66163 5.59178
Spine1  7.68106 -0.452808 -1.98637
HEad  0.0647796 5.67706 -36.639
LeftShoulder1  0.915897 0.801027 -27.7644
LeftArm  -0.0724135 -4.36036 -48.296
LeftForeArm  14.243 -16.7647 -5.853
LeftHand  -0.0992051 3.00968 4.16473
RightShoulder  -0.196882 -4.11361 24.6374
RightArm  20.9184 -10.3048 43.1447
RightForeArm  -13.934 16.7974 6.61824
RightHand  -1.10359 5.34762 -12.2002
LeftUpLeg  -9.0988 20.752 -5.91646
LeftLeg  20.7404 17.0653 4.82852
LeftFoot  -8.03173 -0.154265 6.998
LeftToes  2.58842e-009 -1.78069e-010 3.24654e-012
697
root  -55.0749 39.4117 2.92165 -2.9969 9.7571 4.70303
RightUpLeg  -7.0064 -4.07654 -21.467
RightLeg  30.4523 3.90193 2.21513
RightFoot  -9.2883 -0.144218 4.33596
RightToes  5.82063e-011 0 -3.6325e-017
Spine  18.8654 -2.47867 4.34472
Spine1  9.09091 -1.66882 -2.84762
HEad  1.64403 9.48377 -36.6893
LeftShoulder1  0.865308 0.96919 -28.0173
LeftArm  3.10726 -3.61033 -48.9648
LeftForeArm  13.6306 -17.4373 -5.9582
LeftHand  -0.125155 2.35886 4.47403
RightShoulder  -0.318842 -4.50021 24.8769
RightArm  22.7524 -10.5905 44.1622
RightForeArm  -13.6524 18.3269 6.28025
RightHand  -1.04215 4.73358 -12.1742
LeftUpLeg  -8.75425 12.2664 -8.20651
LeftLeg  20.2361 19.2689 4.87653
LeftFoot  -8.59746 -0.112554 6.8568
LeftToes  2.58842e-009 -1.78069e-010 3.24654e-012
698
root  -54.4919 39.4731 3.45736 -1.92882 16.3689 4.9668
RightUpLeg  -9.52442 -4.95659 -19.7843
RightLeg  34.5406 3.55647 2.35602
RightFoot  -9.45073 -0.131196 4.03939
RightToes  5.82063e-011 0 -3.6325e-017
Spine  15.8958 -3.6631 4.10349
Spine1  9.84519 -2.92638 -3.58129
HEad  2.75852 13.0358 -36.6049
LeftShoulder1  0.786432 1.20922 -28.1512
LeftArm  6.20684 -2.55591 -49.5246
LeftForeArm  13.5971 -18.3439 -5.79816
LeftHand  -0.104781 2.05873 3.12737
RightShoulder  -0.352397 -4.60034 25.0921
RightArm  23.5466 -11.5581 44.7964
RightForeArm  -12.5154 21.323 5.64758
RightHand  -0.909662 4.41569 -11.0179
LeftUpLeg  -7.6521 5.32213 -10.1925
LeftLeg  18.6518 19.835 5.02705
LeftFoot  -8.66455 -0.106097 6.7668
LeftToes  2.58842e-009 -1.78069e-010 3.24654e-012
699
root  -54.0758 39.617 4.04683 -2.51603 22.7199 4.34119
RightUpLeg  -10.7799 -5.39446 -16.6766
RightLeg  36.8959 0.524611 0.173138
RightFoot  -9.16544 -0.127172 3.50981
RightToes  5.82063e-011 0 -3.6325e-017
Spine  14.9605 -4.18333 3.24666
Spine1  10.3973 -3.99846 -2.28815
HEad  3.68822 17.0821 -37.364
LeftShoulder1  0.734036 1.37974 -28.442
LeftArm  8.57489 -1.55009 -50.0237
LeftForeArm  14.0695 -19.1208 -5.55143
LeftHand  -0.0282532 2.72105 0.726749
RightShoulder  -0.335185 -4.55112 24.9101
RightArm  21.7256 -12.821 45.3503
RightForeArm  -10.0728 24.6823 5.73361
RightHand  -0.987016 4.87662 -11.4101
LeftUpLeg  -4.70017 2.82218 -10.4109
LeftLeg  16.5584 16.4412 4.02414
LeftFoot  -8.92376 -0.0919226 6.9016
LeftToes  2.58842e-009 -1.78069e-010 3.24654e-012
